<svg width="20" height="20" viewBox="0 0 20 20" fill="none" xmlns="http://www.w3.org/2000/svg">
<path fill-rule="evenodd" clip-rule="evenodd" d="M10 18.3051C14.5868 18.3051 18.3051 14.5868 18.3051 10C18.3051 5.41323 14.5868 1.69492 10 1.69492C5.41323 1.69492 1.69492 5.41323 1.69492 10C1.69492 14.5868 5.41323 18.3051 10 18.3051ZM10 20C15.5228 20 20 15.5228 20 10C20 4.47715 15.5228 0 10 0C4.47715 0 0 4.47715 0 10C0 15.5228 4.47715 20 10 20Z" fill="white"/>
<path fill-rule="evenodd" clip-rule="evenodd" d="M8.8983 4.82345H10.2542V10.4167H15V11.7726H8.8983V4.82345Z" fill="white"/>
</svg>
